<svg width="36" height="36" viewBox="0 0 36 36" fill="none" xmlns="http://www.w3.org/2000/svg">
    <circle cx="18" cy="18" r="17" stroke="#C1A01E" stroke-width="2"/>
    <path d="M13.6876 11.0744L11.5241 8.90575C11.0938 8.47443 10.382 8.49055 9.93562 8.93396L8.84583 10.0264C8.77747 9.9901 8.70508 9.94979 8.6327 9.90545C7.94505 9.5225 7.00405 8.99846 6.01479 8.00683C5.02152 7.01116 4.49874 6.0679 4.11671 5.37456C4.0765 5.302 4.03628 5.22944 4.00009 5.16494L4.73198 4.43532L5.08988 4.07656C5.53625 3.62912 5.54831 2.91562 5.11803 2.4843L2.95454 0.315602C2.52425 -0.115719 1.81247 -0.103626 1.3661 0.343819L0.75485 0.960568L0.770936 0.976693C0.565846 1.23871 0.396949 1.54104 0.268265 1.86352C0.151646 2.17391 0.0792613 2.46818 0.043069 2.76244C-0.238426 5.13673 0.84332 7.30542 3.77891 10.2441C7.83245 14.3114 11.1018 14.005 11.2426 13.9889C11.5482 13.9526 11.8458 13.88 12.1433 13.7631C12.4651 13.6382 12.7667 13.4649 13.024 13.2633L13.0361 13.2754L13.6514 12.6707C14.1018 12.2193 14.1178 11.5058 13.6876 11.0744Z" transform="translate(11 11)" fill="#C1A01E"/>
</svg>